<?xml version="1.0" encoding="UTF-8" standalone="no"?>
<!-- Created with Inkscape (http://www.inkscape.org/) -->

<svg
   version="1.1"
   id="svg1"
   width="600"
   height="480"
   viewBox="0 0 600 480"
   xml:space="preserve"
   xmlns="http://www.w3.org/2000/svg"
   xmlns:svg="http://www.w3.org/2000/svg"><defs
     id="defs1"><linearGradient
       id="swatch3"><stop
         style="stop-color:#ffffff;stop-opacity:1;"
         offset="0"
         id="stop3" /></linearGradient></defs><g
     id="g1"><g
       id="g2"
       transform="matrix(1.0248874,0,0,1.0248874,-7.5372952,0.2648779)"><ellipse
         style="display:inline;fill:none;fill-opacity:1;fill-rule:evenodd;stroke:#25509a;stroke-width:4.7687;stroke-dasharray:none;stroke-opacity:1"
         id="path2"
         cx="298.58228"
         cy="138.68726"
         rx="19.641464"
         ry="19.189938" /><path
         style="display:inline;fill:#25509a;fill-opacity:1;stroke:#25509a;stroke-width:1.0669;stroke-linecap:square;stroke-linejoin:miter;stroke-dasharray:none;stroke-opacity:1;paint-order:stroke fill markers"
         d="m 296.10516,237.6497 c -0.33931,-4.32284 -14.18611,-2.55867 -40.21358,-3.04599 -17.34979,-0.32485 -45.20085,-4.26605 -43.88277,1.22969 1.00285,4.18137 32.68553,4.42153 53.83377,4.16666 9.09752,-0.10973 30.63426,2.38498 30.26258,-2.35036 z m 33.87275,-1.68216 c 27.31043,-6.19036 46.67877,-21.61774 58.21682,-46.27207 5.49202,-11.76427 12.18781,-39.2946 5.4891,-67.4863 -3.9266,-16.52519 -23.60249,-52.703212 -36.71563,-45.131587 -4.98078,2.875952 2.79243,14.003735 -2.15487,9.184052 -9.0537,-8.820143 -28.55947,-16.147449 -37.13248,-16.163487 -7.50908,-0.01414 0.1544,8.110058 -2.27217,12.870835 -2.13977,4.19799 -6.20133,3.055506 -13.04038,4.116119 -9.9963,1.550229 -17.44832,6.443046 -18.08223,9.001109 -0.63393,2.558053 -0.61182,5.560529 7.60115,7.204229 8.21297,1.64371 22.52077,4.52464 29.65981,11.55871 7.18737,7.08172 9.45881,12.79741 9.48212,23.86009 -1.2604,55.25218 -64.69188,31.8613 -64.79373,41.54456 -0.0389,3.69149 29.29912,2.98329 38.69778,1.48507 41.85722,-6.67235 48.78751,-76.93099 -5.16232,-83.299344 -2.79563,-0.329995 -9.27137,-1.158625 -9.27137,-1.768034 0,-2.416438 9.42645,-3.690687 14.23108,-4.588946 3.98919,-0.745807 11.06833,0.285552 14.90459,-4.162336 5.13692,-5.955927 -2.21941,-11.066185 1.84012,-11.066185 7.24768,0 24.20573,7.487858 32.33498,16.304316 12.28314,13.321509 18.16775,29.239359 17.69588,47.867209 -0.29737,11.73831 -0.99175,13.22115 2.57008,13.39928 7.69442,0.38487 3.15016,-34.67211 -2.09386,-46.98608 -6.02602,-14.150221 -13.05976,-27.271318 -8.23128,-24.28176 19.69516,12.194266 46.05915,75.36735 6.48079,122.34636 -13.47153,15.99052 -29.86487,23.72694 -53.01957,27.46337 -3.35735,0.54176 -4.34441,1.27401 -4.41611,3.04796 -0.16265,4.02335 6.9538,2.27119 17.1817,-0.0473 z m 15.86255,-38.62075 c -5.27512,-4.24838 -14.98709,12.20074 -43.09396,16.10952 -19.42475,2.70137 -45.41918,-0.95411 -45.52521,3.63535 -0.10574,4.57687 36.10166,4.72658 46.26439,3.11974 21.28227,-3.36494 47.85436,-18.43545 42.35478,-22.86461 z m -24.26623,-3.33551 c 7.16606,-3.7501 9.55152,-5.47212 16.63474,-12.31261 9.82873,-9.49189 13.92345,-17.94744 16.66817,-31.6023 3.65742,-18.19535 -2.47452,-37.58094 -16.03968,-50.707921 -3.86335,-3.738556 -7.90724,-8.346135 -10.43504,-6.632377 -3.41956,2.318344 -0.41637,4.016122 5.40407,9.002988 5.47197,4.68831 8.31584,8.80973 11.58866,15.52806 3.9057,8.0175 4.45144,10.25605 4.86245,19.94536 0.37842,8.92028 -0.006,12.32127 -2.10262,18.61565 -7.62139,22.87764 -22.74824,29.77199 -29.42043,33.91882 -6.70645,4.16812 -9.70339,3.71588 -8.27479,6.06097 1.08681,1.78406 3.79999,2.01113 11.11447,-1.81664 z m -66.89836,-15.5572 c 0,-2.28845 -1.06508,-2.16997 -21.28301,-2.48325 -12.33086,-0.19106 -21.52149,-0.0852 -22.17949,0.58241 -0.61959,0.62858 -1.0332,1.8226 -0.63804,2.86731 0.6268,1.65716 4.09627,1.56625 22.58199,1.69044 20.62829,0.13855 21.51855,-0.36648 21.51855,-2.65691 z m -37.99232,-16.68439 c -0.0746,-1.57863 -0.70089,-7.46506 -1.39189,-13.08097 -3.14335,-25.547 4.69219,-48.08687 23.25543,-66.897056 14.12392,-14.311817 27.62284,-21.133836 47.19872,-23.853104 11.37449,-1.58001 24.7995,-0.0235 36.28839,4.207356 5.60716,2.064858 8.15119,2.498847 9.24577,1.577238 0.83052,-0.699314 1.18254,-1.809111 0.78224,-2.466224 -1.32263,-2.171162 -10.89705,-5.793731 -19.96494,-7.553922 -45.94164,-8.917821 -89.8293,19.42982 -101.01782,65.248802 -3.30058,13.51644 -1.97048,42.92939 2.06223,45.60326 2.18137,1.44635 3.68584,0.26321 3.54187,-2.78538 z m 35.58392,2.02405 c 0.34883,-0.92228 -0.77906,-5.19341 -1.80342,-9.68382 -5.11307,-22.41349 3.48192,-45.19457 22.83979,-57.241846 5.07147,-3.156196 6.44861,-5.115471 3.60916,-6.220913 -3.19387,-1.243401 -11.35335,3.336224 -18.39929,10.326909 -13.85251,13.74387 -19.33515,33.33912 -14.54915,51.99938 2.67266,10.4205 6.54524,15.46723 8.30291,10.82029 z m 20.07551,-0.14743 c 0.37952,-1.00337 -0.70921,-3.87275 -2.41938,-6.3764 -18.79802,-27.51989 16.27815,-47.9524 5.42734,-47.9524 -2.84256,0 -9.96482,7.70404 -13.25427,14.33695 -3.89927,7.86254 -4.43562,20.14125 -1.25254,28.6739 2.39935,6.4318 7.32252,13.1422 9.64189,13.1422 0.64182,0 1.47747,-0.82095 1.85696,-1.82429 z"
         id="path1" /></g><path
       d="m 128.53927,336.26265 -0.8078,6.46237 c -1.34644,9.55883 -3.90425,18.74735 -7.67408,27.56591 -3.7023,8.75103 -8.6166,16.55984 -14.7423,23.42613 -6.058476,6.86627 -13.261441,12.2853 -21.608577,16.25676 -8.27991,3.90456 -17.636785,5.75571 -28.070941,5.55376 C 45.60531,415.32563 37.089835,413.1714 30.088978,409.06521 23.088063,404.95901 17.500814,399.47245 13.32719,392.60617 9.2208922,385.7399 6.4609102,378.06582 5.0472687,369.58395 3.6336177,361.03488 3.4653282,352.28385 4.5423885,343.33054 l 0.8077978,-6.56319 c 1.3463405,-9.42441 3.9043434,-18.51212 7.6740777,-27.26315 3.837034,-8.75104 8.784793,-16.55986 14.843275,-23.42612 6.12584,-6.86628 13.362418,-12.21795 21.709544,-16.05497 8.347126,-3.90435 17.704336,-5.75556 28.070962,-5.55361 9.962722,0.13463 18.41098,2.25512 25.344475,6.36141 7.00101,4.10629 12.55478,9.59258 16.66097,16.45886 4.1062,6.86628 6.86629,14.54035 8.27992,23.02222 1.48086,8.48187 1.6828,17.1321 0.60586,25.95066 z m -33.321646,7.06789 0.908618,-6.86628 c 0.538639,-4.2406 0.841724,-8.95297 0.90893,-14.13644 0.06723,-5.18315 -0.47111,-10.16468 -1.615596,-14.94426 -1.144485,-4.77924 -3.264794,-8.75103 -6.361239,-11.91468 -3.029563,-3.16405 -7.472446,-4.88062 -13.328649,-5.14987 -6.327971,-0.26925 -11.74699,1.00975 -16.257089,3.83704 -4.442883,2.76008 -8.111571,6.49598 -11.006388,11.20802 -2.894504,4.64516 -5.183151,9.7275 -6.866287,15.24733 -1.682802,5.51985 -2.894493,10.83806 -3.635085,15.95401 l -0.908607,6.86626 c -0.47111,4.17374 -0.774195,8.88578 -0.908617,14.13646 -0.06754,5.18347 0.437507,10.1986 1.514463,15.04538 1.144485,4.84678 3.264794,8.88577 6.36124,12.11696 3.096769,3.16367 7.573265,4.84678 13.429791,5.04841 6.260431,0.26948 11.611921,-1.00943 16.054804,-3.83671 4.510423,-2.89482 8.246317,-6.66465 11.20835,-11.30916 2.962033,-4.71237 5.284294,-9.82831 6.967096,-15.34815 1.683125,-5.52016 2.861214,-10.83806 3.534265,-15.95432 z M 257.38292,295.87277 236.98604,413.50808 h -29.98931 l -29.88849,-72.90369 -12.62201,72.90369 H 133.588 l 20.39687,-117.63531 h 29.8885 l 29.98963,72.90339 12.62167,-72.90339 z m 73.40776,42.10628 -4.23932,24.63782 h -57.35424 l 4.24061,-24.63782 z m 125.61248,-12.31892 -4.44289,25.44563 h -74.01361 l 4.44288,-25.44563 z m -53.51496,-59.17114 -25.549,147.01909 h -32.00817 l 25.44562,-147.01909 z m 85.82684,0 -25.54578,147.01909 h -31.90799 l 25.44561,-147.01909 z m 94.00821,122.58322 -4.34272,24.43587 h -89.76566 l 4.34272,-24.43587 z m 12.72118,-76.53878 -89.66548,100.97465 h -23.82679 l 2.92746,-16.96373 90.77702,-100.67158 h 22.71849 z m -6.76287,-16.66066 -4.24254,24.53669 h -86.93838 l 4.34273,-24.53669 z"
       fill="#27529b"
       id="path1-4"
       style="stroke-width:3.23119" /></g></svg>
