<?xml version="1.0" encoding="UTF-8" standalone="no"?>
<!-- Created with Inkscape (http://www.inkscape.org/) -->

<svg
   version="1.1"
   id="svg1"
   width="600"
   height="480"
   viewBox="0 0 600 480"
   xml:space="preserve"
   xmlns="http://www.w3.org/2000/svg"
   xmlns:svg="http://www.w3.org/2000/svg"><defs
     id="defs1"><linearGradient
       id="swatch3"><stop
         style="stop-color:#ffffff;stop-opacity:1;"
         offset="0"
         id="stop3" /></linearGradient></defs><g
     id="g1"><ellipse
       style="display:inline;fill:none;fill-opacity:1;fill-rule:evenodd;stroke:#25509a;stroke-width:10.9852;stroke-dasharray:none;stroke-opacity:1"
       id="path2"
       cx="288.32376"
       cy="220.93265"
       rx="45.246208"
       ry="44.206066" /><path
       style="display:inline;fill:#25509a;fill-opacity:1;stroke:#25509a;stroke-width:2.45773;stroke-linecap:square;stroke-linejoin:miter;stroke-dasharray:none;stroke-opacity:1;paint-order:stroke fill markers"
       d="m 282.61747,448.90317 c -0.78163,-9.95811 -32.67923,-5.89417 -92.63625,-7.01673 -39.9671,-0.74835 -104.125001,-9.82733 -101.088655,2.83268 2.310179,9.63226 75.294595,10.18545 124.011815,9.59836 20.95713,-0.25265 70.56931,5.49408 69.71309,-5.41431 z m 78.0295,-3.87502 C 423.55943,430.768 468.17648,395.22938 494.75559,338.43554 507.40705,311.33525 522.8315,247.91621 507.40031,182.97364 498.35498,144.90609 453.02947,61.566169 422.82197,79.008218 c -11.47378,6.625046 6.43266,32.259102 -4.964,21.156432 -20.85615,-20.31813 -65.78976,-37.197378 -85.53861,-37.234314 -17.29798,-0.03249 0.35566,18.682387 -5.23419,29.649351 -4.92918,9.670513 -14.28541,7.038676 -30.03989,9.481903 -23.02753,3.57113 -40.19408,14.84224 -41.65438,20.73501 -1.46031,5.89275 -1.40936,12.80926 17.51008,16.59571 18.91945,3.78646 51.87901,10.42298 68.32454,26.62675 16.55689,16.31348 21.78939,29.48017 21.84305,54.96426 -2.90343,127.27925 -149.0246,73.39585 -149.25924,95.70227 -0.0895,8.50376 67.49365,6.87233 89.14445,3.42104 96.42257,-15.37048 112.38725,-177.21873 -11.89193,-191.88891 -6.44006,-0.76019 -21.35763,-2.66901 -21.35763,-4.07287 0,-5.56651 21.71488,-8.50188 32.78284,-10.57112 9.18951,-1.71805 25.49705,0.65781 34.33429,-9.58839 11.83345,-13.720084 -5.11264,-25.492116 4.23893,-25.492116 16.69581,0 55.76049,17.249067 74.48709,37.558716 28.2955,30.68751 41.85133,67.35597 40.76432,110.26722 -0.68501,27.04046 -2.28457,30.4563 5.92046,30.86668 17.72491,0.88658 7.25672,-79.8709 -4.82346,-108.23744 -13.88155,-32.59654 -30.08452,-62.822404 -18.9616,-55.935624 45.36991,28.090784 106.10218,173.616724 14.92918,281.837874 -31.03308,36.83585 -68.79689,54.65751 -122.1362,63.26476 -7.73403,1.24803 -10.00783,2.93486 -10.17302,7.02134 -0.37466,9.26822 16.01885,5.23192 39.57992,-0.10874 z M 397.188,356.06113 c -12.15176,-9.78657 -34.52433,28.10571 -99.27153,37.11 -44.74695,6.22289 -104.62789,-2.19787 -104.87217,8.37443 -0.24356,10.54329 83.16404,10.88817 106.57498,7.18665 49.02596,-7.75151 110.23763,-42.46801 97.56872,-52.67108 z m -55.89981,-7.68369 c 16.50778,-8.63875 22.00293,-12.60562 38.31989,-28.36342 22.64151,-21.8656 32.07414,-41.34383 38.39693,-72.79927 8.42524,-41.9149 -5.70036,-86.57169 -36.94912,-116.81107 -8.89964,-8.61216 -18.21517,-19.22622 -24.03824,-15.2784 -7.87734,5.34055 -0.95915,9.25157 12.44885,20.73935 12.60524,10.80003 19.15642,20.29415 26.6957,35.77054 8.9972,18.46915 10.25437,23.62589 11.20119,45.94626 0.87171,20.54882 -0.0138,28.38335 -4.84362,42.88311 -17.55668,52.70109 -52.40298,68.58297 -67.77308,78.13563 -15.44904,9.60171 -22.35281,8.55994 -19.06189,13.96209 2.50359,4.10976 8.7537,4.63284 25.60339,-4.18482 z M 187.18066,312.53977 c 0,-5.27171 -2.45349,-4.99877 -49.02766,-5.72043 -28.40546,-0.44016 -49.577052,-0.19624 -51.092815,1.34163 -1.427274,1.44799 -2.380095,4.19857 -1.469795,6.60519 1.443897,3.81742 9.436221,3.608 52.02003,3.89407 47.51943,0.31921 49.57024,-0.84421 49.57024,-6.12046 z M 99.661324,274.10549 C 99.489585,270.46895 98.046731,256.90892 96.454963,243.97209 89.21391,185.12186 107.2639,133.19887 150.02631,89.867589 182.56227,56.89881 213.65847,41.183558 258.75359,34.919441 c 26.20236,-3.639733 57.12827,-0.05422 83.5942,9.692093 12.91666,4.756613 18.77711,5.75636 21.29859,3.633322 1.91321,-1.610931 2.72412,-4.167473 1.80199,-5.681195 C 362.40154,37.562154 340.34583,29.217164 319.45701,25.162395 213.62552,4.6192453 112.52566,69.92104 86.751687,175.46995 c -7.60324,31.13658 -4.539239,98.89244 4.750563,105.05197 5.02501,3.33182 8.490715,0.60631 8.159074,-6.41643 z m 81.971336,4.66263 c 0.80357,-2.12458 -1.79462,-11.96358 -4.15435,-22.30771 -11.77851,-51.63188 8.021,-104.11049 52.61389,-131.8627 11.68265,-7.27064 14.85506,-11.78404 8.31407,-14.33053 -7.35744,-2.86431 -26.15363,7.68533 -42.38472,23.78915 -31.91071,31.66048 -44.54058,76.8002 -33.51551,119.7861 6.15676,24.00474 15.07765,35.63041 19.12662,24.92569 z m 46.24611,-0.33962 c 0.87426,-2.31138 -1.63374,-8.92131 -5.57332,-14.68873 -43.30326,-63.39497 37.49845,-110.46344 12.50248,-110.46344 -6.54815,0 -22.95504,17.74707 -30.53265,33.02668 -8.98238,18.11221 -10.21793,46.39749 -2.88535,66.05336 5.52718,14.81636 16.86819,30.27447 22.21113,30.27447 1.4785,0 3.40347,-1.89113 4.27771,-4.20248 z"
       id="path1" /></g></svg>
